<svg xmlns="http://www.w3.org/2000/svg" xmlns:xlink="http://www.w3.org/1999/xlink" viewBox="0 0 734.81 731.73"><defs><style>.cls-1{fill:url(#linear-gradient);}.cls-2{fill:url(#linear-gradient-2);}.cls-3{fill:url(#linear-gradient-3);}.cls-4{fill:url(#linear-gradient-4);}.cls-5{fill:url(#linear-gradient-5);}</style><linearGradient id="linear-gradient" x1="2.8" y1="242.49" x2="509.1" y2="242.49" gradientUnits="userSpaceOnUse"><stop offset="0" stop-color="#009fe3"/><stop offset="1" stop-color="#29235c"/></linearGradient><linearGradient id="linear-gradient-2" x1="629.14" y1="526.74" x2="0" y2="526.74" xlink:href="#linear-gradient"/><linearGradient id="linear-gradient-3" x1="105.67" y1="204.99" x2="734.81" y2="204.99" xlink:href="#linear-gradient"/><linearGradient id="linear-gradient-4" x1="732.38" y1="489.29" x2="225.32" y2="489.29" xlink:href="#linear-gradient"/><linearGradient id="linear-gradient-5" x1="613.69" y1="395.62" x2="613.59" y2="395.62" xlink:href="#linear-gradient"/></defs><g id="Layer_2" data-name="Layer 2"><g id="Layer_1-2" data-name="Layer 1"><path class="cls-1" d="M509.1,231.87a194.48,194.48,0,0,0-141.7-61c-107.7,0-195,87.31-195,195A195.21,195.21,0,0,0,179.71,419l-.71-.86q-3.63-4.32-7.49-8.51c-1-1.12-2.1-2.28-3.15-3.39s-2.05-2.15-3.11-3.2a.9.9,0,0,0-.23-.25c-1-1.06-2.1-2.14-3.15-3.17-1.28-1.26-2.52-2.49-3.8-3.71l-2.68-2.5c-1.27-1.19-2.56-2.36-3.85-3.5-1.07-1-2.18-2-3.29-2.89l-.08-.07c-1.11-1-2.25-1.95-3.42-2.89s-2.12-1.77-3.17-2.64-2.13-1.72-3.23-2.57c-.74-.6-1.5-1.18-2.27-1.76-3.26-2.53-6.59-5-10-7.35-.83-.58-1.64-1.16-2.47-1.7-2.21-1.53-4.43-3-6.65-4.43-1.07-.69-2.17-1.4-3.28-2.06s-2.16-1.38-3.26-2c-.76-.46-1.5-.91-2.27-1.35-2.31-1.37-4.65-2.73-7-4l-3-1.65c-.42-.21-.86-.46-1.31-.68-1.17-.64-2.33-1.24-3.53-1.84l-2.13-1.11c-1.76-.87-3.53-1.73-5.28-2.56-1-.49-2.08-1-3.12-1.47-1.4-.65-2.8-1.26-4.2-1.9-1.2-.53-2.41-1-3.63-1.55-1.37-.58-2.75-1.17-4.13-1.71-.86-.35-1.75-.72-2.61-1.05l-3.16-1.21-1.37-.54L59,335.16a1.77,1.77,0,0,0-.37-.12c-1.57-.55-3.16-1.1-4.74-1.63l-.33-.1c-2-.66-4-1.29-6-1.89l-3.63-1.09c-.55-.17-1.11-.33-1.68-.46s-1.12-.34-1.7-.48c-1.11-.32-2.24-.62-3.38-.91s-2.19-.57-3.3-.83-2.4-.61-3.6-.88c-1-.24-2-.47-3-.68a4.69,4.69,0,0,0-.61-.12c-1-.25-2-.44-3-.65l-1.26-.25c-.78-.17-1.57-.31-2.37-.48L17.2,324c-1.17-.2-2.32-.4-3.51-.59-2.21-.38-4.38-.72-6.59-1.07-.37-.05-.74-.1-1.11-.13-1.07-.16-2.12-.31-3.19-.44A366.54,366.54,0,0,1,105.67,109.57,276.47,276.47,0,0,1,255,66c109.57,0,204.31,63.53,249.39,155.74C506.05,225.08,507.62,228.45,509.1,231.87Z"/><path class="cls-2" d="M629.14,622.16l-1.95,2-.68.68c-6.19,6.18-12.62,12.13-19.22,17.83A360.89,360.89,0,0,1,555.52,680q-8.7,5.2-17.7,9.9c-1.3.68-2.62,1.37-3.94,2-7.66,3.92-15.5,7.55-23.46,10.94a365,365,0,0,1-142.79,28.9h-.23a365.78,365.78,0,0,1-94-12.17c-.62-.15-1.21-.3-1.79-.47a364.88,364.88,0,0,1-47.23-16.26l-.86-.37a366.24,366.24,0,0,1-115-77.49l-.85-.84a365.93,365.93,0,0,1-78.7-116.78c-1.57-3.66-3.05-7.35-4.47-11.05-.37-.95-.73-1.9-1.06-2.85s-.81-2.15-1.2-3.21c-.34-.88-.63-1.74-.94-2.63-.75-2-1.44-4-2.11-6-.4-1.13-.77-2.27-1.14-3.41l-.13-.38c-.52-1.65-1-3.26-1.56-4.91a.58.58,0,0,1,0-.1c-.52-1.66-1-3.34-1.52-5-.57-1.91-1.09-3.83-1.63-5.74-.37-1.33-.72-2.66-1.09-4-.08-.33-.15-.64-.22-1-.29-1.05-.55-2.12-.83-3.18-.2-.76-.39-1.54-.57-2.31-.74-3.06-1.46-6.12-2.12-9.19q-1.11-5.14-2.06-10.27c-.16-.88-.34-1.72-.49-2.6s-.31-1.68-.43-2.57c-.44-2.57-.88-5.13-1.27-7.71-.19-1.47-.43-2.92-.62-4.36s-.37-2.74-.52-4.12c-.55-4.22-1-8.47-1.38-12.77-.07-.7-.15-1.42-.19-2.1-.12-1.1-.18-2.21-.27-3.31C1,391.81,1,391,.9,390.25q-.69-9.84-.83-19.73c0-.74,0-1.49,0-2.23s0-1.7,0-2.56c0-.47,0-.93,0-1.41a373.58,373.58,0,0,1,2.43-42.56,1.64,1.64,0,0,0,.37.05c1.07.13,2.12.28,3.19.44.37,0,.74.08,1.11.13,2.21.35,4.38.69,6.59,1.07,1.19.19,2.34.39,3.51.59l2.85.55c.8.17,1.59.31,2.37.48l1.26.25c1,.21,2,.4,3,.65a4.69,4.69,0,0,1,.61.12c1,.21,2,.44,3,.68,1.2.27,2.4.58,3.6.88s2.2.54,3.3.83,2.27.59,3.38.91c.58.14,1.14.3,1.7.48s1.13.29,1.68.46l3.63,1.09c2,.6,4,1.23,6,1.89l.33.1c1.58.53,3.17,1.08,4.74,1.63a1.77,1.77,0,0,1,.37.12l4.73,1.7,1.37.54,3.16,1.21c.86.33,1.75.7,2.61,1.05,1.38.54,2.76,1.13,4.13,1.71,1.22.52,2.43,1,3.63,1.55,1.4.64,2.8,1.25,4.2,1.9,1,.47,2.1,1,3.12,1.47,1.75.83,3.52,1.69,5.28,2.56L93.34,350c1.2.6,2.36,1.2,3.53,1.84.45.22.89.47,1.31.68l3,1.65c2.34,1.3,4.68,2.66,7,4,.77.44,1.51.89,2.27,1.35,1.1.65,2.18,1.33,3.26,2s2.21,1.37,3.28,2.06c2.22,1.45,4.44,2.9,6.65,4.43.83.54,1.64,1.12,2.47,1.7,3.37,2.37,6.7,4.82,10,7.35.77.58,1.53,1.16,2.27,1.76,1.1.85,2.15,1.69,3.23,2.57s2.13,1.75,3.17,2.64,2.31,1.92,3.42,2.89l.08.07c1.11.93,2.22,1.93,3.29,2.89,1.29,1.14,2.58,2.31,3.85,3.5l2.68,2.5c1.28,1.22,2.52,2.45,3.8,3.71,1,1,2.13,2.11,3.15,3.17a.9.9,0,0,1,.23.25c1.06,1.05,2.08,2.13,3.11,3.2s2.13,2.27,3.15,3.39q3.86,4.19,7.49,8.51l.71.86a194.85,194.85,0,0,0,45.61,80.47c.13.13.25.26.37.4q2.25,5.13,4.7,10.13a277.84,277.84,0,0,0,233,155.24s0,0,0,0a0,0,0,0,1,0,0q8.13.49,16.39.49a278,278,0,0,0,37.06-2.46q9.49-1.26,18.79-3.18a275.07,275.07,0,0,0,36.75-10.2h0c3.2-1.11,6.35-2.3,9.46-3.53,6.92-2.72,13.71-5.75,20.34-9,1-.47,1.9-.94,2.85-1.42h0c2.51-1.28,5-2.58,7.47-3.93q4-2.21,8-4.53a.06.06,0,0,0,0,0q2.6-1.53,5.18-3.14c1.08-.67,2.17-1.35,3.25-2Z"/><path class="cls-3" d="M734.81,367.39A376.29,376.29,0,0,1,732.38,410a1,1,0,0,0-.15,0l-.46-.06-2.95-.41c-.37-.05-.74-.08-1.11-.15-2.21-.33-4.39-.67-6.59-1.06-1.19-.19-2.35-.4-3.53-.6l-2.83-.54c-.8-.16-1.59-.31-2.37-.49-.43-.07-.83-.16-1.26-.25q-1.47-.28-3-.63a4.34,4.34,0,0,1-.6-.14c-1-.19-2-.43-3-.66-1.2-.27-2.4-.58-3.6-.88l-3.32-.84c-1.12-.3-2.25-.58-3.36-.91-.58-.13-1.14-.29-1.71-.47s-1.12-.31-1.68-.48c-1.21-.35-2.42-.71-3.62-1.08-2-.61-4-1.24-6-1.89-.11,0-.22-.08-.33-.11q-2.4-.8-4.75-1.61c-.11-.05-.24-.06-.36-.12-1.59-.57-3.16-1.13-4.73-1.71l-1.39-.53c-1-.39-2.08-.8-3.14-1.21-.86-.35-1.75-.7-2.61-1.06-1.39-.53-2.77-1.12-4.13-1.72s-2.45-1-3.65-1.55c-1.39-.62-2.79-1.23-4.18-1.88l-3.13-1.47q-2.64-1.24-5.27-2.58c-.71-.36-1.42-.71-2.15-1.1-1.19-.59-2.34-1.21-3.51-1.83-.45-.23-.89-.48-1.31-.7-1-.53-2-1.1-3-1.65-2.34-1.3-4.68-2.65-7-4l-2.27-1.35-3.28-2c-1.09-.7-2.19-1.37-3.26-2.08-2.22-1.45-4.44-2.9-6.65-4.43-.83-.56-1.66-1.14-2.47-1.7-3.37-2.39-6.7-4.82-10-7.35-.77-.58-1.53-1.18-2.29-1.77l-3.21-2.55c-1.05-.89-2.13-1.76-3.19-2.65s-2.29-1.93-3.42-2.89l-.06-.06c-1.11-1-2.22-1.94-3.29-2.9-1.29-1.14-2.58-2.33-3.85-3.5-.88-.83-1.78-1.66-2.68-2.52-1.28-1.21-2.52-2.43-3.8-3.69-1.05-1.05-2.13-2.12-3.17-3.19a.58.58,0,0,1-.21-.23c-1.06-1.05-2.09-2.14-3.11-3.2s-2.13-2.27-3.17-3.41c-2.55-2.79-5-5.62-7.47-8.51-.24-.26-.47-.55-.71-.83a194.71,194.71,0,0,0-46-80.88c-1.48-3.42-3.05-6.79-4.68-10.14C459.34,129.52,364.6,66,255,66a276.47,276.47,0,0,0-149.36,43.58c.64-.65,1.29-1.32,1.94-2q9.63-9.63,19.91-18.49A367.78,367.78,0,0,1,510.44,28.9c.28.13.56.23.86.37a368.39,368.39,0,0,1,194.6,195.1q2.36,5.49,4.46,11.07c.37.94.74,1.9,1.06,2.82.43,1.08.82,2.15,1.2,3.23.33.87.64,1.73,1,2.61.74,2,1.43,4,2.11,6,.4,1.14.77,2.3,1.14,3.43,0,.11.09.25.12.38.53,1.63,1,3.26,1.57,4.91,0,.06,0,.07,0,.1.54,1.66,1,3.33,1.51,5,.58,1.9,1.1,3.82,1.63,5.72.37,1.35.73,2.67,1.1,4,.07.33.15.64.22,1,.28,1,.55,2.12.82,3.17.21.77.4,1.56.58,2.32.74,3.05,1.45,6.13,2.12,9.2.72,3.42,1.43,6.83,2,10.27.17.87.33,1.72.49,2.58s.3,1.7.43,2.57c.45,2.58.89,5.15,1.26,7.73.21,1.45.45,2.91.64,4.37s.37,2.72.52,4.1c.55,4.23,1,8.48,1.38,12.78.07.69.15,1.4.19,2.13.12,1.07.18,2.16.27,3.26.06.79.13,1.57.16,2.34q.69,9.82.84,19.74c0,.77,0,1.48,0,2.21C734.79,364.74,734.81,366.07,734.81,367.39Z"/><path class="cls-4" d="M732.38,410A370.27,370.27,0,0,1,629,622.24c-1.08.7-2.17,1.38-3.25,2q-2.58,1.61-5.18,3.14a.06.06,0,0,1,0,0c-2.64,1.57-5.29,3.08-8,4.53-2.46,1.35-4.95,2.67-7.47,3.93h0c-.95.48-1.88,1-2.85,1.42q-9.95,4.93-20.39,9.07-4.93,2-10,3.72a274.44,274.44,0,0,1-36.12,10,278.32,278.32,0,0,1-56.06,5.68c-109.57,0-204.31-63.52-249.4-155.75-1.7-3.5-3.35-7-4.92-10.62.13.13.25.26.37.4a194.55,194.55,0,0,0,141.71,61c107.71,0,195-87.31,195-195a195.23,195.23,0,0,0-7.32-53.11c.24.28.47.57.71.83,2.42,2.89,4.92,5.72,7.47,8.51,1,1.14,2.12,2.3,3.17,3.41s2,2.15,3.11,3.2a.58.58,0,0,0,.21.23c1,1.07,2.12,2.14,3.17,3.19,1.28,1.26,2.52,2.48,3.8,3.69.9.86,1.8,1.69,2.68,2.52,1.27,1.17,2.56,2.36,3.85,3.5,1.07,1,2.18,1.94,3.29,2.9l.06.06c1.13,1,2.27,1.94,3.42,2.89s2.14,1.76,3.19,2.65l3.21,2.55c.76.59,1.52,1.19,2.29,1.77,3.26,2.53,6.59,5,10,7.35.81.56,1.64,1.14,2.47,1.7,2.21,1.53,4.43,3,6.65,4.43,1.07.71,2.17,1.38,3.26,2.08l3.28,2,2.27,1.35c2.31,1.36,4.65,2.71,7,4,1,.55,2,1.12,3,1.65.42.22.86.47,1.31.7,1.17.62,2.32,1.24,3.51,1.83.73.39,1.44.74,2.15,1.1q2.63,1.33,5.27,2.58l3.13,1.47c1.39.65,2.79,1.26,4.18,1.88,1.2.53,2.42,1,3.65,1.55s2.74,1.19,4.13,1.72c.86.36,1.75.71,2.61,1.06,1.06.41,2.1.82,3.14,1.21l1.39.53c1.57.58,3.14,1.14,4.73,1.71.12.06.25.07.36.12q2.35.81,4.75,1.61c.11,0,.22.09.33.11,2,.65,4,1.28,6,1.89,1.2.37,2.41.73,3.62,1.08.56.17,1.12.34,1.68.48s1.13.34,1.71.47c1.11.33,2.24.61,3.36.91l3.32.84c1.2.3,2.4.61,3.6.88,1,.23,2,.47,3,.66a4.34,4.34,0,0,0,.6.14q1.5.35,3,.63c.43.09.83.18,1.26.25.78.18,1.57.33,2.37.49l2.83.54c1.18.2,2.34.41,3.53.6,2.2.39,4.38.73,6.59,1.06.37.07.74.1,1.11.15l2.95.41.46.06A1,1,0,0,1,732.38,410Z"/><path class="cls-5" d="M613.69,395.63l-.1,0C613.65,395.6,613.69,395.59,613.69,395.63Z"/></g></g></svg>